<?xml version="1.0" encoding="UTF-8"?>
<svg width="155px" height="30px" viewBox="0 0 155 30" version="1.1" xmlns="http://www.w3.org/2000/svg" xmlns:xlink="http://www.w3.org/1999/xlink">
    <!-- Generator: Sketch 60.1 (88133) - https://sketch.com -->
    <title>XYZClothing</title>
    <desc>Created with Sketch.</desc>
    <g id="Symbols" stroke="none" stroke-width="1" fill="none" fill-rule="evenodd">
        <g id="sidebar" transform="translate(-82.000000, -60.000000)" fill="#FFFFFF" fill-rule="nonzero">
            <g id="Group-3" transform="translate(82.000000, 60.000000)">
                <path d="M6.614,23 L8.546,17.932 L10.45,23 L17.002,23 L12.214,12.584 L16.722,3.176 L10.478,3.176 L8.658,8.076 L6.95,3.176 L0.594,3.176 L5.046,12.668 L0.314,23 L6.614,23 Z M27.502,23 L27.502,16.476 L32.626,3.176 L26.158,3.176 L24.59,10.484 L24.506,10.484 L23.022,3.176 L16.442,3.176 L21.51,16.476 L21.51,23 L27.502,23 Z M45.086,23 L45.086,17.512 L39.822,17.512 L45.086,7.88 L45.086,3.176 L33.27,3.176 L33.27,8.524 L37.974,8.524 L32.738,18.128 L32.738,23 L45.086,23 Z M60.458,23.56 C61.2233333,23.56 61.9093333,23.4853333 62.516,23.336 C63.1226667,23.1866667 63.664,22.9906667 64.14,22.748 C64.616,22.5053333 65.0406667,22.2206667 65.414,21.894 C65.7873333,21.5673333 66.114,21.2173333 66.394,20.844 L66.394,20.844 L63.006,16.364 C62.8006667,16.6626667 62.5346667,16.938 62.208,17.19 C61.8813333,17.442 61.494,17.568 61.046,17.568 C60.654,17.568 60.2993333,17.456 59.982,17.232 C59.6646667,17.008 59.394,16.6953333 59.17,16.294 C58.946,15.8926667 58.778,15.4213333 58.666,14.88 C58.554,14.3386667 58.498,13.7413333 58.498,13.088 C58.498,12.4346667 58.554,11.828 58.666,11.268 C58.778,10.708 58.946,10.2273333 59.17,9.826 C59.394,9.42466667 59.66,9.112 59.968,8.888 C60.276,8.664 60.626,8.552 61.018,8.552 C61.5593333,8.552 61.9793333,8.678 62.278,8.93 C62.5766667,9.182 62.8473333,9.46666667 63.09,9.784 L63.09,9.784 L66.338,5.164 C66.0766667,4.828 65.764,4.51066667 65.4,4.212 C65.036,3.91333333 64.616,3.64266667 64.14,3.4 C63.664,3.15733333 63.118,2.966 62.502,2.826 C61.886,2.686 61.2046667,2.616 60.458,2.616 C59.2633333,2.616 58.1666667,2.86333333 57.168,3.358 C56.1693333,3.85266667 55.306,4.55733333 54.578,5.472 C53.85,6.38666667 53.2806667,7.488 52.87,8.776 C52.4593333,10.064 52.254,11.5013333 52.254,13.088 C52.254,14.656 52.4593333,16.0793333 52.87,17.358 C53.2806667,18.6366667 53.85,19.738 54.578,20.662 C55.306,21.586 56.1693333,22.3 57.168,22.804 C58.1666667,23.308 59.2633333,23.56 60.458,23.56 Z M73.702,23 L73.702,1.832 L67.822,1.832 L67.822,23 L73.702,23 Z M82.466,23.56 C83.53,23.56 84.4773333,23.3593333 85.308,22.958 C86.1386667,22.5566667 86.8433333,21.9966667 87.422,21.278 C88.0006667,20.5593333 88.444,19.7053333 88.752,18.716 C89.06,17.7266667 89.214,16.6533333 89.214,15.496 C89.214,14.32 89.06,13.2373333 88.752,12.248 C88.444,11.2586667 88.0006667,10.4046667 87.422,9.686 C86.8433333,8.96733333 86.1386667,8.40733333 85.308,8.006 C84.4773333,7.60466667 83.53,7.404 82.466,7.404 C81.4206667,7.404 80.4826667,7.60466667 79.652,8.006 C78.8213333,8.40733333 78.112,8.96733333 77.524,9.686 C76.936,10.4046667 76.488,11.2586667 76.18,12.248 C75.872,13.2373333 75.718,14.32 75.718,15.496 C75.718,16.6533333 75.872,17.7266667 76.18,18.716 C76.488,19.7053333 76.936,20.5593333 77.524,21.278 C78.112,21.9966667 78.8213333,22.5566667 79.652,22.958 C80.4826667,23.3593333 81.4206667,23.56 82.466,23.56 Z M82.466,18.492 C82.242,18.492 82.046,18.4126667 81.878,18.254 C81.71,18.0953333 81.5746667,17.876 81.472,17.596 C81.3693333,17.316 81.29,16.994 81.234,16.63 C81.178,16.266 81.15,15.8786667 81.15,15.468 C81.15,14.628 81.2573333,13.914 81.472,13.326 C81.6866667,12.738 82.018,12.444 82.466,12.444 C82.9513333,12.444 83.3013333,12.738 83.516,13.326 C83.7306667,13.914 83.838,14.628 83.838,15.468 C83.838,15.8786667 83.8146667,16.266 83.768,16.63 C83.7213333,16.994 83.642,17.316 83.53,17.596 C83.418,17.876 83.2733333,18.0953333 83.096,18.254 C82.9186667,18.4126667 82.7086667,18.492 82.466,18.492 Z M96.606,23.392 C97.1473333,23.392 97.6746667,23.3453333 98.188,23.252 C98.7013333,23.1586667 99.0886667,23.0373333 99.35,22.888 L99.35,22.888 L99.35,18.324 C99.2566667,18.3613333 99.1306667,18.3986667 98.972,18.436 C98.8133333,18.4733333 98.6406667,18.492 98.454,18.492 C97.9686667,18.492 97.614,18.3473333 97.39,18.058 C97.166,17.7686667 97.054,17.2973333 97.054,16.644 L97.054,16.644 L97.054,12.444 L99.602,12.444 L99.602,7.964 L97.054,7.964 L97.054,4.604 L91.538,4.604 L91.538,7.964 L89.83,7.964 L89.83,12.444 L91.566,12.444 L91.566,18.072 C91.566,19.8826667 91.9673333,21.222 92.77,22.09 C93.5726667,22.958 94.8513333,23.392 96.606,23.392 Z M106.714,23 L106.714,14.04 C106.714,13.5546667 106.798,13.1673333 106.966,12.878 C107.134,12.5886667 107.395333,12.444 107.75,12.444 C108.067333,12.444 108.296,12.584 108.436,12.864 C108.576,13.144 108.646,13.536 108.646,14.04 L108.646,14.04 L108.646,23 L114.358,23 L114.358,14.04 C114.358,13.1626667 114.311333,12.3226667 114.218,11.52 C114.124667,10.7173333 113.928667,10.0126667 113.63,9.406 C113.331333,8.79933333 112.916,8.314 112.384,7.95 C111.852,7.586 111.138,7.404 110.242,7.404 C109.308667,7.404 108.557333,7.63733333 107.988,8.104 C107.418667,8.57066667 107.022,9.084 106.798,9.644 L106.798,9.644 L106.714,9.644 L106.714,1.832 L101.002,1.832 L101.002,23 L106.714,23 Z M119.874,7.124 C120.77,7.124 121.498,6.816 122.058,6.2 C122.618,5.584 122.898,4.828 122.898,3.932 C122.898,3.50266667 122.823333,3.092 122.674,2.7 C122.524667,2.308 122.319333,1.96733333 122.058,1.678 C121.796667,1.38866667 121.479333,1.15533333 121.106,0.978 C120.732667,0.800666667 120.322,0.712 119.874,0.712 C119.426,0.712 119.015333,0.800666667 118.642,0.978 C118.268667,1.15533333 117.951333,1.38866667 117.69,1.678 C117.428667,1.96733333 117.223333,2.308 117.074,2.7 C116.924667,3.092 116.85,3.50266667 116.85,3.932 C116.85,4.828 117.13,5.584 117.69,6.2 C118.25,6.816 118.978,7.124 119.874,7.124 Z M122.702,23 L122.702,7.964 L117.046,7.964 L117.046,23 L122.702,23 Z M131.214,23 L131.214,14.04 C131.214,13.5546667 131.298,13.1673333 131.466,12.878 C131.634,12.5886667 131.895333,12.444 132.25,12.444 C132.567333,12.444 132.796,12.584 132.936,12.864 C133.076,13.144 133.146,13.536 133.146,14.04 L133.146,14.04 L133.146,23 L138.858,23 L138.858,14.04 C138.858,13.1626667 138.811333,12.3226667 138.718,11.52 C138.624667,10.7173333 138.428667,10.0126667 138.13,9.406 C137.831333,8.79933333 137.416,8.314 136.884,7.95 C136.352,7.586 135.638,7.404 134.742,7.404 C133.808667,7.404 133.029333,7.642 132.404,8.118 C131.778667,8.594 131.363333,9.14933333 131.158,9.784 L131.158,9.784 L131.074,9.784 L131.074,7.964 L125.502,7.964 L125.502,23 L131.214,23 Z M146.922,29.72 C149.386,29.72 151.229333,29.0386667 152.452,27.676 C153.674667,26.3133333 154.286,24.176 154.286,21.264 L154.286,21.264 L154.286,7.964 L148.854,7.964 L148.854,9.42 L148.742,9.42 C148.518,8.86 148.168,8.40266667 147.692,8.048 C147.216,7.69333333 146.604667,7.516 145.858,7.516 C145.036667,7.516 144.313333,7.712 143.688,8.104 C143.062667,8.496 142.530667,9.042 142.092,9.742 C141.653333,10.442 141.322,11.2726667 141.098,12.234 C140.874,13.1953333 140.762,14.236 140.762,15.356 C140.762,16.42 140.869333,17.4186667 141.084,18.352 C141.298667,19.2853333 141.620667,20.0973333 142.05,20.788 C142.479333,21.4786667 143.011333,22.02 143.646,22.412 C144.280667,22.804 145.018,23 145.858,23 C146.194,23 146.511333,22.958 146.81,22.874 C147.108667,22.79 147.384,22.678 147.636,22.538 C147.888,22.398 148.112,22.244 148.308,22.076 C148.504,21.908 148.648667,21.74 148.742,21.572 L148.742,21.572 L148.798,21.572 L148.798,22.216 C148.798,22.9626667 148.592667,23.5693333 148.182,24.036 C147.771333,24.5026667 147.192667,24.736 146.446,24.736 C145.904667,24.736 145.391333,24.6426667 144.906,24.456 C144.420667,24.2693333 143.963333,24.0266667 143.534,23.728 L143.534,23.728 L140.958,28.04 C141.723333,28.5066667 142.638,28.9033333 143.702,29.23 C144.766,29.5566667 145.839333,29.72 146.922,29.72 Z M147.678,18.492 C147.435333,18.492 147.225333,18.4126667 147.048,18.254 C146.870667,18.0953333 146.726,17.876 146.614,17.596 C146.502,17.316 146.422667,16.994 146.376,16.63 C146.329333,16.266 146.306,15.8786667 146.306,15.468 C146.306,14.628 146.413333,13.914 146.628,13.326 C146.842667,12.738 147.192667,12.444 147.678,12.444 C148.126,12.444 148.457333,12.738 148.672,13.326 C148.886667,13.914 148.994,14.628 148.994,15.468 C148.994,15.8786667 148.966,16.266 148.91,16.63 C148.854,16.994 148.774667,17.316 148.672,17.596 C148.569333,17.876 148.434,18.0953333 148.266,18.254 C148.098,18.4126667 147.902,18.492 147.678,18.492 Z" id="XYZClothing"></path>
            </g>
        </g>
    </g>
</svg>